<mxfile host="app.diagrams.net" modified="2023-07-18T14:48:58.130Z" agent="Mozilla/5.0 (Macintosh; Intel Mac OS X 10.15; rv:109.0) Gecko/20100101 Firefox/113.0" etag="ha1JNYfMnhVCzu2TQUm3" version="21.6.2" type="github">
  <diagram name="Page-1" id="YREcRLgi97RU9oibWOEd">
    <mxGraphModel dx="934" dy="575" grid="1" gridSize="10" guides="1" tooltips="1" connect="1" arrows="1" fold="1" page="1" pageScale="1" pageWidth="850" pageHeight="1100" math="0" shadow="0">
      <root>
        <mxCell id="0" />
        <mxCell id="1" parent="0" />
        <mxCell id="YSLj4dM6GfRP_lhbsOXj-2" value="Redis Cache" style="verticalLabelPosition=bottom;html=1;verticalAlign=top;align=center;strokeColor=none;fillColor=#00BEF2;shape=mxgraph.azure.azure_cache;" vertex="1" parent="1">
          <mxGeometry x="490" y="290" width="45" height="50" as="geometry" />
        </mxCell>
        <mxCell id="YSLj4dM6GfRP_lhbsOXj-6" style="edgeStyle=orthogonalEdgeStyle;rounded=0;orthogonalLoop=1;jettySize=auto;html=1;entryX=0.5;entryY=0;entryDx=0;entryDy=0;entryPerimeter=0;" edge="1" parent="1" source="YSLj4dM6GfRP_lhbsOXj-3" target="YSLj4dM6GfRP_lhbsOXj-2">
          <mxGeometry relative="1" as="geometry" />
        </mxCell>
        <mxCell id="YSLj4dM6GfRP_lhbsOXj-13" value="TTL 1min" style="edgeLabel;html=1;align=center;verticalAlign=middle;resizable=0;points=[];" vertex="1" connectable="0" parent="YSLj4dM6GfRP_lhbsOXj-6">
          <mxGeometry x="0.3924" y="2" relative="1" as="geometry">
            <mxPoint y="1" as="offset" />
          </mxGeometry>
        </mxCell>
        <mxCell id="YSLj4dM6GfRP_lhbsOXj-7" style="edgeStyle=orthogonalEdgeStyle;rounded=0;orthogonalLoop=1;jettySize=auto;html=1;entryX=0.5;entryY=0;entryDx=0;entryDy=0;" edge="1" parent="1" source="YSLj4dM6GfRP_lhbsOXj-3" target="YSLj4dM6GfRP_lhbsOXj-4">
          <mxGeometry relative="1" as="geometry" />
        </mxCell>
        <mxCell id="YSLj4dM6GfRP_lhbsOXj-10" style="edgeStyle=orthogonalEdgeStyle;rounded=0;orthogonalLoop=1;jettySize=auto;html=1;entryX=1;entryY=0.5;entryDx=0;entryDy=0;entryPerimeter=0;" edge="1" parent="1" source="YSLj4dM6GfRP_lhbsOXj-3" target="YSLj4dM6GfRP_lhbsOXj-5">
          <mxGeometry relative="1" as="geometry" />
        </mxCell>
        <mxCell id="YSLj4dM6GfRP_lhbsOXj-3" value="&lt;div&gt;HTTP Trigger&lt;/div&gt;&lt;div&gt;Azure Function&lt;br&gt;&lt;/div&gt;" style="image;aspect=fixed;html=1;points=[];align=center;fontSize=12;image=img/lib/azure2/compute/Function_Apps.svg;" vertex="1" parent="1">
          <mxGeometry x="357" y="150" width="68" height="60" as="geometry" />
        </mxCell>
        <mxCell id="YSLj4dM6GfRP_lhbsOXj-4" value="Strava API" style="shape=image;verticalLabelPosition=bottom;labelBackgroundColor=default;verticalAlign=top;aspect=fixed;imageAspect=0;image=https://bikewalkwichita.org/wp-content/uploads/2020/03/strava-logo-png-4.png;" vertex="1" parent="1">
          <mxGeometry x="610" y="280.06" width="70" height="69.88" as="geometry" />
        </mxCell>
        <mxCell id="YSLj4dM6GfRP_lhbsOXj-9" style="edgeStyle=orthogonalEdgeStyle;rounded=0;orthogonalLoop=1;jettySize=auto;html=1;" edge="1" parent="1" source="YSLj4dM6GfRP_lhbsOXj-5" target="YSLj4dM6GfRP_lhbsOXj-3">
          <mxGeometry relative="1" as="geometry" />
        </mxCell>
        <mxCell id="YSLj4dM6GfRP_lhbsOXj-12" value="{monthlyRun,&lt;br&gt;&lt;div&gt;monthlyBike&lt;/div&gt;&lt;div&gt;cacheHit}&lt;/div&gt;" style="edgeLabel;html=1;align=center;verticalAlign=middle;resizable=0;points=[];" vertex="1" connectable="0" parent="YSLj4dM6GfRP_lhbsOXj-9">
          <mxGeometry x="0.0588" y="2" relative="1" as="geometry">
            <mxPoint as="offset" />
          </mxGeometry>
        </mxCell>
        <mxCell id="YSLj4dM6GfRP_lhbsOXj-5" value="Azure SPA" style="verticalLabelPosition=bottom;html=1;verticalAlign=top;align=center;strokeColor=none;fillColor=#00BEF2;shape=mxgraph.azure.azure_website;pointerEvents=1;" vertex="1" parent="1">
          <mxGeometry x="120" y="155" width="50" height="50" as="geometry" />
        </mxCell>
        <mxCell id="YSLj4dM6GfRP_lhbsOXj-20" style="edgeStyle=orthogonalEdgeStyle;rounded=0;orthogonalLoop=1;jettySize=auto;html=1;entryX=0.5;entryY=1;entryDx=0;entryDy=0;entryPerimeter=0;" edge="1" parent="1" source="YSLj4dM6GfRP_lhbsOXj-14" target="YSLj4dM6GfRP_lhbsOXj-5">
          <mxGeometry relative="1" as="geometry" />
        </mxCell>
        <mxCell id="YSLj4dM6GfRP_lhbsOXj-21" value="30s interval" style="edgeLabel;html=1;align=center;verticalAlign=middle;resizable=0;points=[];" vertex="1" connectable="0" parent="YSLj4dM6GfRP_lhbsOXj-20">
          <mxGeometry x="-0.3709" relative="1" as="geometry">
            <mxPoint as="offset" />
          </mxGeometry>
        </mxCell>
        <mxCell id="YSLj4dM6GfRP_lhbsOXj-14" value="RPi" style="shape=image;html=1;verticalAlign=top;verticalLabelPosition=bottom;labelBackgroundColor=#ffffff;imageAspect=0;aspect=fixed;image=https://cdn2.iconfinder.com/data/icons/electronic-13/480/3-electronic-arduino-chipset-icon-2-128.png" vertex="1" parent="1">
          <mxGeometry x="60" y="372" width="78" height="78" as="geometry" />
        </mxCell>
        <mxCell id="YSLj4dM6GfRP_lhbsOXj-18" style="edgeStyle=orthogonalEdgeStyle;rounded=0;orthogonalLoop=1;jettySize=auto;html=1;" edge="1" parent="1" source="YSLj4dM6GfRP_lhbsOXj-15" target="YSLj4dM6GfRP_lhbsOXj-14">
          <mxGeometry relative="1" as="geometry" />
        </mxCell>
        <mxCell id="YSLj4dM6GfRP_lhbsOXj-15" value="Monitor" style="image;html=1;image=img/lib/clip_art/computers/Monitor_128x128.png" vertex="1" parent="1">
          <mxGeometry x="240" y="384" width="50" height="54" as="geometry" />
        </mxCell>
        <mxCell id="YSLj4dM6GfRP_lhbsOXj-16" value="" style="endArrow=none;dashed=1;html=1;dashPattern=1 3;strokeWidth=2;rounded=0;" edge="1" parent="1">
          <mxGeometry width="50" height="50" relative="1" as="geometry">
            <mxPoint x="50" y="250" as="sourcePoint" />
            <mxPoint x="670" y="410" as="targetPoint" />
          </mxGeometry>
        </mxCell>
      </root>
    </mxGraphModel>
  </diagram>
</mxfile>
